<?xml version="1.0" encoding="utf-8"?>
<!-- Svg Vector Icons : http://www.onlinewebfonts.com/icon -->
<!DOCTYPE svg PUBLIC "-//W3C//DTD SVG 1.1//EN" "http://www.w3.org/Graphics/SVG/1.1/DTD/svg11.dtd">
<svg version="1.1" xmlns="http://www.w3.org/2000/svg" xmlns:xlink="http://www.w3.org/1999/xlink" x="0px" y="0px" viewBox="0 0 1000 1000" enable-background="new 0 0 1000 1000" xml:space="preserve">
<metadata> Svg Vector Icons : http://www.onlinewebfonts.com/icon </metadata>
<g><g><path d="M500,255c-135.3,0-245,109.7-245,245c0,135.3,109.7,245,245,245c135.3,0,245-109.7,245-245C745,364.7,635.3,255,500,255z M500,653.1V346.9c84.4,0,153.1,68.7,153.1,153.1C653.1,584.4,584.4,653.1,500,653.1z M500,806.3c33.8,0,61.3,27.4,61.3,61.3v61.3c0,33.8-27.4,61.3-61.3,61.3s-61.3-27.4-61.3-61.3v-61.3C438.8,833.7,466.2,806.3,500,806.3z M500,193.8c-33.8,0-61.3-27.4-61.3-61.3V71.3c0-33.8,27.4-61.3,61.3-61.3s61.3,27.4,61.3,61.3v61.3C561.3,166.3,533.8,193.8,500,193.8z M928.8,438.8c33.8,0,61.3,27.4,61.3,61.3s-27.4,61.3-61.3,61.3h-61.3c-33.8,0-61.3-27.4-61.3-61.3s27.4-61.3,61.3-61.3H928.8z M193.8,500c0,33.8-27.4,61.3-61.3,61.3H71.3C37.4,561.3,10,533.8,10,500s27.4-61.3,61.3-61.3h61.3C166.3,438.8,193.8,466.2,193.8,500z M803.2,716.6l43.3,43.3c23.9,23.9,23.9,62.7,0,86.6c-23.9,23.9-62.7,23.9-86.6,0l-43.3-43.3c-23.9-23.9-23.9-62.7,0-86.6C740.5,692.6,779.3,692.6,803.2,716.6z M196.8,283.4l-43.3-43.3c-23.9-23.9-23.9-62.7,0-86.6s62.7-23.9,86.6,0l43.3,43.3c23.9,23.9,23.9,62.7,0,86.6C259.5,307.4,220.7,307.4,196.8,283.4z M803.2,283.4c-23.9,23.9-62.7,23.9-86.6,0c-23.9-23.9-23.9-62.7,0-86.6l43.3-43.3c23.9-23.9,62.7-23.9,86.6,0c23.9,23.9,23.9,62.7,0,86.6L803.2,283.4z M196.8,716.6c23.9-23.9,62.7-23.9,86.6,0c23.9,23.9,23.9,62.7,0,86.6l-43.3,43.3c-23.9,23.9-62.7,23.9-86.6,0c-23.9-23.9-23.9-62.7,0-86.6L196.8,716.6z"/></g><g></g><g></g><g></g><g></g><g></g><g></g><g></g><g></g><g></g><g></g><g></g><g></g><g></g><g></g><g></g></g>
</svg>