<?xml version="1.0" standalone="no"?>
<!DOCTYPE svg PUBLIC "-//W3C//DTD SVG 20010904//EN"
 "http://www.w3.org/TR/2001/REC-SVG-20010904/DTD/svg10.dtd">
<svg version="1.0" xmlns="http://www.w3.org/2000/svg"
 width="700.000000pt" height="700.000000pt" viewBox="0 0 700.000000 700.000000"
 preserveAspectRatio="xMidYMid meet">
<metadata>
Created by potrace 1.11, written by Peter Selinger 2001-2013
</metadata>
<g transform="translate(0.000000,700.000000) scale(0.100000,-0.100000)"
fill="#000000" stroke="none">
<path d="M2778 6415 c-2 -2 -48 -6 -103 -9 -664 -45 -1355 -367 -1833 -856
-451 -461 -717 -1002 -816 -1660 -27 -179 -28 -634 -2 -775 2 -11 9 -54 16
-95 33 -206 107 -462 191 -659 55 -127 144 -301 190 -369 16 -24 29 -45 29
-48 0 -9 107 -160 169 -239 215 -274 472 -504 775 -692 101 -63 376 -203 398
-203 8 0 18 -4 24 -9 14 -14 233 -88 359 -121 427 -113 899 -126 1335 -36 357
74 738 234 1025 430 68 47 174 125 191 140 7 6 31 27 55 46 209 167 428 416
596 678 65 102 218 392 236 448 3 10 16 44 27 74 71 186 128 403 154 583 4 27
9 58 12 70 2 12 6 50 10 84 l6 64 -79 78 c-123 122 -244 178 -405 188 l-88 6
-1 -74 c0 -41 -2 -87 -3 -104 -9 -104 -18 -191 -21 -195 -2 -3 -6 -25 -9 -50
-7 -52 -13 -85 -20 -108 -3 -9 -7 -30 -10 -45 -19 -112 -127 -395 -208 -547
-42 -79 -139 -235 -170 -275 -271 -346 -504 -544 -843 -714 -169 -86 -176 -88
-300 -130 -268 -88 -462 -119 -750 -119 -203 0 -340 14 -495 49 -25 6 -52 12
-60 14 -163 34 -444 147 -615 248 -51 30 -192 123 -210 138 -11 10 -56 46 -99
80 -472 377 -793 987 -843 1604 -12 145 -4 468 12 518 2 7 6 30 9 52 6 46 11
68 30 153 149 650 589 1220 1187 1536 267 141 602 240 887 261 118 9 406 3
482 -9 19 -3 51 -8 70 -10 215 -28 508 -125 726 -241 l101 -54 13 27 c79 170
98 403 45 562 -16 48 -16 48 -113 88 -176 73 -399 143 -530 167 -15 3 -37 7
-48 9 -12 2 -37 7 -55 10 -19 3 -43 7 -54 10 -11 2 -49 7 -85 11 -36 3 -78 9
-95 12 -31 5 -392 12 -397 8z"/>
<path d="M6000 6306 c-69 -41 -278 -162 -465 -271 -187 -109 -392 -228 -455
-264 -63 -37 -177 -103 -253 -147 -91 -52 -139 -86 -142 -99 -2 -11 -7 -42
-10 -70 -25 -209 -146 -512 -270 -674 -33 -43 -165 -172 -192 -188 -46 -26
-505 -292 -523 -303 -65 -40 -153 -90 -155 -90 -2 0 -56 -31 -121 -70 -64 -38
-118 -70 -121 -70 -2 0 -22 -11 -44 -25 l-40 -26 -77 29 c-127 49 -235 57
-350 28 -122 -32 -202 -77 -282 -160 -255 -262 -207 -690 101 -895 95 -63 202
-94 329 -92 219 2 424 138 519 345 24 53 51 162 51 211 0 29 16 39 478 307
262 152 495 286 517 299 47 26 137 58 184 65 18 3 43 8 55 11 11 2 80 6 151 8
203 6 426 -33 602 -107 79 -33 73 -33 163 19 273 159 744 433 1007 585 183
106 331 196 330 200 -1 4 -206 109 -456 233 l-453 226 6 112 c3 61 8 164 11
227 3 63 7 162 10 220 3 58 7 157 10 220 3 63 8 152 10 198 3 45 4 82 2 81 -1
0 -58 -33 -127 -73z"/>
<path d="M2687 5234 c-529 -75 -971 -361 -1259 -814 -120 -188 -210 -439 -244
-679 -14 -98 -20 -330 -10 -396 2 -16 7 -57 11 -90 17 -154 88 -383 166 -535
41 -81 81 -152 89 -160 3 -3 25 -34 50 -70 239 -347 633 -609 1051 -698 141
-31 198 -36 379 -36 172 -1 243 6 370 35 25 6 56 13 70 15 59 12 213 70 320
122 225 108 426 265 580 452 25 30 47 57 50 60 21 18 127 192 170 278 97 193
146 357 173 577 15 120 16 200 2 200 -5 0 -151 -81 -322 -180 l-313 -180 -19
-50 c-80 -204 -239 -414 -396 -522 -22 -16 -42 -31 -45 -34 -3 -4 -48 -29
-100 -57 -95 -51 -247 -106 -317 -116 -127 -19 -171 -22 -245 -20 -123 3 -183
12 -287 39 -365 97 -682 396 -800 756 -24 72 -26 80 -46 189 -19 101 -13 346
11 422 3 9 7 27 9 39 33 170 163 398 309 543 260 257 620 380 969 331 67 -9
81 -9 105 6 15 9 119 69 232 134 113 66 245 142 293 171 l88 52 -33 20 c-136
82 -416 175 -593 197 -97 12 -380 12 -468 -1z"/>
</g>
</svg>
